<?xml version="1.0" standalone="no"?>
<!DOCTYPE svg PUBLIC "-//W3C//DTD SVG 20010904//EN"
 "http://www.w3.org/TR/2001/REC-SVG-20010904/DTD/svg10.dtd">
<svg version="1.0" xmlns="http://www.w3.org/2000/svg"
 width="512.000000pt" height="494.000000pt" viewBox="0 0 512.000000 494.000000"
 preserveAspectRatio="xMidYMid meet">

<g transform="translate(0.000000,494.000000) scale(0.100000,-0.100000)"
fill="#000000" stroke="none">
<path d="M0 2470 l0 -2470 2560 0 2560 0 0 2470 0 2470 -2560 0 -2560 0 0
-2470z m2810 2376 c312 -29 575 -103 871 -244 83 -40 332 -200 419 -270 64
-52 300 -275 300 -285 0 -4 38 -56 85 -115 89 -111 221 -327 285 -467 66 -141
136 -364 177 -554 25 -119 27 -141 27 -406 0 -307 -9 -382 -75 -637 -42 -162
-142 -418 -193 -492 -14 -21 -26 -43 -26 -47 0 -23 -211 -334 -251 -369 -3 -3
-31 -36 -63 -74 -90 -106 -281 -269 -441 -376 -44 -29 -82 -56 -85 -60 -13
-16 -335 -171 -412 -198 -100 -36 -278 -83 -393 -106 -336 -65 -797 -41 -1120
58 -105 32 -262 97 -350 145 -38 21 -106 58 -150 81 -244 131 -506 355 -668
572 -38 51 -82 107 -97 123 -27 30 -145 233 -203 350 -67 137 -138 355 -176
545 -38 189 -52 497 -31 716 13 133 71 394 117 529 49 143 171 384 266 526 45
67 87 129 92 138 6 9 21 27 35 42 14 14 57 63 97 110 40 47 97 105 127 129 30
24 60 54 67 67 7 13 16 23 20 23 4 0 29 17 56 38 126 99 319 220 458 287 232
110 572 207 791 224 170 13 276 12 444 -3z"/>
<path d="M2470 4645 c-8 -2 -67 -9 -130 -15 -285 -30 -666 -161 -872 -301 -32
-21 -60 -39 -63 -39 -24 0 -312 -248 -397 -341 -178 -195 -335 -443 -411 -649
-16 -41 -32 -82 -36 -90 -11 -20 -38 -116 -46 -157 -3 -18 -10 -44 -15 -59
-17 -45 -30 -113 -45 -234 -55 -453 20 -875 227 -1285 17 -33 35 -66 41 -74 6
-7 16 -21 22 -31 59 -105 191 -278 302 -397 65 -70 257 -232 329 -278 326
-210 589 -308 972 -364 110 -16 421 -14 543 5 185 27 292 51 414 94 123 43
331 139 398 184 21 14 40 26 42 26 9 0 147 98 225 160 85 68 238 220 317 316
34 42 105 141 171 240 30 45 181 364 200 424 146 451 150 894 12 1358 -57 192
-188 449 -320 631 -123 169 -334 370 -531 508 -67 47 -245 147 -309 173 -30
13 -62 29 -71 37 -8 7 -20 13 -26 13 -5 0 -66 18 -134 40 -165 53 -274 76
-453 94 -130 14 -312 19 -356 11z m-790 -585 c47 -10 75 -19 63 -19 -37 -1
-26 -19 15 -24 20 -2 -9 -3 -64 -3 -81 1 -100 4 -96 15 4 10 18 12 56 8 49 -5
50 -5 21 8 -16 8 -51 14 -76 15 -47 0 -73 -19 -121 -90 -22 -31 -23 -107 -4
-171 15 -50 71 -167 87 -184 6 -6 26 9 54 42 25 29 61 58 81 65 22 8 33 17 29
26 -4 10 1 11 18 5 65 -24 159 8 215 72 34 38 40 55 20 55 -9 0 -8 4 2 10 12
8 12 10 -5 11 -16 0 -14 3 8 11 23 8 27 15 27 48 0 55 -16 64 -108 58 l-77 -6
50 13 c81 21 111 19 134 -11 53 -68 -13 -210 -118 -253 -17 -8 -31 -16 -31
-20 0 -3 20 -19 45 -34 25 -16 48 -33 51 -38 3 -5 -16 4 -43 21 l-48 31 -3
-151 -3 -150 -64 0 -65 0 0 151 c0 140 -1 151 -17 145 -39 -15 -83 -53 -109
-93 -15 -24 -30 -43 -34 -43 -5 0 -28 39 -53 88 -42 83 -77 191 -77 241 0 23
-2 23 -67 16 -140 -15 -211 -51 -352 -179 -104 -93 -304 -346 -288 -362 3 -3
25 19 49 50 23 30 44 53 46 51 2 -2 -15 -28 -37 -58 -23 -29 -41 -59 -41 -65
0 -6 17 -24 38 -39 48 -35 198 -148 232 -174 27 -21 40 -24 40 -9 0 6 4 10 9
10 5 0 7 -9 4 -20 -7 -28 7 -25 45 9 23 22 32 39 33 63 0 18 4 42 9 53 6 14 9
3 9 -40 l1 -60 18 30 c24 38 82 90 130 114 92 46 142 56 282 56 121 0 140 -3
182 -23 94 -46 136 -125 118 -220 -14 -73 -43 -125 -95 -167 -51 -42 -54 -50
-22 -59 12 -3 38 -19 58 -35 45 -37 64 -98 56 -179 -6 -73 -36 -132 -93 -187
-61 -60 -120 -86 -220 -97 -94 -11 -126 -4 -164 37 -20 22 -21 27 -10 55 15
35 23 37 57 10 29 -23 103 -27 166 -9 108 30 170 175 118 277 -24 48 -59 64
-140 68 -72 2 -83 11 -79 64 l3 35 57 -3 c86 -5 140 31 174 116 20 51 15 139
-11 178 -27 41 -74 64 -133 64 l-52 0 6 -52 c5 -47 1 -66 -39 -163 -40 -101
-86 -231 -122 -345 -18 -58 -51 -210 -60 -277 -4 -29 -11 -55 -16 -58 -15 -10
-46 13 -68 49 -49 79 -10 236 174 690 31 76 54 140 51 143 -10 11 -109 -31
-154 -64 -69 -51 -100 -91 -118 -151 -13 -45 -19 -53 -35 -49 -19 5 -19 -6
-17 -436 l3 -441 88 -28 c48 -15 125 -34 170 -42 45 -7 68 -14 50 -15 -40 -1
-160 23 -241 50 -66 22 -84 20 -66 -9 12 -19 88 -43 229 -73 87 -19 135 -22
375 -23 l275 -1 158 38 c163 40 221 45 100 9 -149 -44 -315 -64 -538 -65 -115
0 -237 5 -270 11 -33 6 -82 14 -110 17 -27 3 -93 20 -145 38 l-95 32 -3 538
c-1 295 -5 537 -8 537 -3 0 -26 -18 -52 -39 -62 -52 -79 -54 -127 -16 -22 18
-92 71 -155 119 -63 48 -118 96 -122 107 -9 24 -3 36 71 149 89 134 183 237
321 352 103 86 140 102 281 122 l75 11 63 68 c35 37 71 67 80 67 9 -1 54 -9
101 -20z m343 8 c24 -12 55 -46 89 -94 20 -29 28 -32 92 -38 114 -11 180 -35
259 -95 104 -78 141 -113 223 -210 41 -47 81 -93 89 -102 8 -9 15 -19 15 -23
0 -4 25 -43 55 -87 30 -44 55 -83 55 -87 -1 -12 -32 -45 -70 -73 -19 -15 -44
-36 -56 -47 -11 -10 -30 -25 -42 -31 -12 -6 -22 -21 -22 -32 0 -12 -8 -33 -19
-47 -10 -15 -25 -49 -34 -77 -35 -108 -99 -384 -104 -447 -6 -64 -5 -68 14
-68 30 0 91 72 99 116 4 21 22 62 40 92 72 121 167 187 238 165 18 -6 56 -8
85 -5 48 4 51 3 51 -18 0 -13 -14 -65 -30 -117 -17 -52 -33 -128 -37 -169 -7
-89 4 -95 66 -38 29 25 46 53 61 98 53 160 154 252 271 247 l56 -2 9 53 c4 29
8 85 8 125 l1 72 44 11 c40 10 47 9 58 -6 7 -10 13 -30 13 -44 0 -35 -29 -171
-73 -340 -41 -160 -53 -235 -38 -244 13 -8 60 15 82 40 9 11 26 45 38 77 46
127 91 193 155 231 55 32 111 42 141 26 19 -10 30 -10 54 -1 36 15 76 -1 68
-27 -2 -10 -21 -70 -41 -135 -35 -116 -46 -200 -26 -212 14 -9 65 24 90 56 11
16 26 54 34 86 7 32 22 76 34 98 39 76 149 145 231 145 37 0 87 -34 107 -72
37 -71 -10 -244 -89 -325 -51 -53 -92 -73 -152 -73 -57 0 -100 21 -120 60 -9
17 -18 30 -22 30 -3 0 -28 -20 -54 -45 -40 -37 -55 -45 -87 -45 -45 0 -69 21
-78 68 -4 18 -10 32 -13 32 -4 0 -23 -16 -42 -36 -44 -47 -104 -77 -135 -70
-13 4 -34 22 -47 41 -12 19 -25 35 -29 35 -4 0 -28 -16 -54 -35 -80 -61 -133
-44 -149 48 l-7 37 -40 -45 c-44 -50 -66 -64 -117 -76 -42 -9 -66 2 -90 42
l-18 29 -44 -35 c-74 -58 -141 -45 -155 30 -8 46 -19 51 -39 21 -24 -36 -106
-97 -124 -92 -9 2 -28 7 -43 10 -18 4 -34 18 -44 39 -9 17 -18 34 -20 36 -2 2
-24 -15 -49 -38 -31 -29 -53 -41 -74 -41 -51 0 -61 20 -61 128 0 97 7 130 80
401 26 97 25 106 -9 121 -16 6 -41 25 -57 41 -15 16 -31 29 -36 29 -4 0 -8
-26 -9 -57 0 -32 -4 -67 -9 -78 -5 -13 -9 28 -9 110 -1 87 2 125 9 115 5 -8
10 -25 10 -38 0 -12 14 -35 33 -52 40 -37 55 -38 32 -2 -18 27 -18 27 2 10 11
-10 22 -18 26 -18 8 0 57 34 151 105 44 33 101 75 128 94 26 18 48 39 48 47 0
17 -75 128 -145 214 -99 121 -266 264 -352 301 -41 17 -200 46 -209 37 -1 -2
-9 -35 -17 -73 -23 -110 -98 -276 -125 -275 -4 1 -15 17 -24 36 l-16 36 24
-23 c21 -20 27 -21 35 -9 47 71 99 219 99 283 0 41 -5 51 -52 102 l-52 57 -50
-5 c-163 -19 -157 -19 -81 2 85 23 110 24 138 9z m-434 -85 c-5 -50 1 -64 31
-69 25 -5 27 -8 15 -20 -7 -8 -19 -14 -25 -14 -20 0 23 -61 64 -91 45 -34 39
-38 -11 -8 -61 38 -108 147 -87 203 8 21 16 20 13 -1z m149 -90 c-10 -2 -28
-2 -40 0 -13 2 -5 4 17 4 22 1 32 -1 23 -4z m165 0 c-7 -2 -21 -2 -30 0 -10 3
-4 5 12 5 17 0 24 -2 18 -5z m-70 -10 c-13 -2 -33 -2 -45 0 -13 2 -3 4 22 4
25 0 35 -2 23 -4z m2222 -833 c-29 -64 -83 -76 -167 -35 -71 34 -101 33 -132
-7 -20 -25 -26 -29 -31 -17 -8 21 7 59 40 97 32 38 76 42 140 13 76 -34 91
-34 127 -2 31 28 33 29 36 9 2 -11 -4 -38 -13 -58z m-1700 -121 c19 -17 38
-42 41 -55 3 -13 10 -24 14 -24 12 0 20 -182 21 -470 1 -275 -3 -320 -28 -320
-13 0 -13 3 -3 15 10 12 10 19 2 27 -8 8 -37 3 -104 -16 -51 -14 -102 -26
-113 -25 -11 1 3 7 30 14 28 7 83 22 123 34 l72 22 1 267 c0 147 1 282 2 300
1 19 -1 36 -5 39 -5 2 -8 -6 -8 -19 0 -13 -17 -60 -39 -104 -78 -161 -213
-237 -321 -182 -66 34 -85 74 -85 178 1 71 5 95 28 144 52 112 123 178 209
195 89 18 125 13 163 -20z m62 -1 c-3 -8 -6 -5 -6 6 -1 11 2 17 5 13 3 -3 4
-12 1 -19z m0 -60 c-3 -8 -6 -5 -6 6 -1 11 2 17 5 13 3 -3 4 -12 1 -19z m1187
-563 c103 -49 103 -184 0 -288 -81 -82 -107 -94 -226 -99 -92 -4 -108 -2 -111
11 -5 24 16 95 62 208 43 105 48 128 31 138 -24 15 -7 33 43 43 72 14 155 9
201 -13z m729 -4 c37 -21 39 -76 3 -93 -35 -15 -60 -4 -51 25 14 46 11 52 -23
55 -45 4 -74 -22 -70 -62 2 -23 16 -40 60 -74 45 -34 59 -50 64 -79 17 -89
-81 -173 -200 -173 -43 0 -104 23 -111 42 -7 20 21 93 37 93 8 0 14 -15 16
-40 5 -68 64 -87 121 -39 40 34 42 77 4 107 -77 63 -103 95 -103 126 0 101
153 169 253 112z m-1681 -83 l3 -103 39 78 c29 59 36 81 28 89 -20 20 -14 26
44 33 78 9 88 -1 80 -85 -19 -211 -19 -249 -2 -275 19 -29 18 -30 -58 -44 -27
-5 -55 -7 -63 -4 -16 6 -17 50 -3 162 6 46 8 86 5 89 -10 10 -33 -32 -50 -91
-17 -62 -36 -77 -95 -77 -34 0 -40 13 -40 96 0 35 -4 64 -9 64 -15 0 -52 -90
-58 -142 -5 -40 -3 -51 13 -63 18 -13 18 -14 -9 -24 -68 -26 -77 -25 -77 5 0
41 17 83 83 211 61 120 66 137 40 147 -35 14 9 29 99 34 l27 2 3 -102z m593
79 c107 -91 -59 -373 -231 -393 -47 -6 -54 -4 -85 24 -31 28 -34 35 -34 89 0
180 242 374 350 280z m792 -24 c-3 -27 -24 -93 -47 -148 -45 -110 -58 -169
-41 -179 21 -13 11 -23 -31 -31 -85 -14 -93 -12 -96 17 -2 15 4 50 12 79 9 29
16 56 16 61 0 10 -101 10 -116 0 -37 -24 -44 -92 -13 -123 27 -27 17 -35 -49
-42 -40 -5 -54 -3 -58 7 -15 39 54 174 131 258 81 88 186 146 264 148 l34 0
-6 -47z m-1912 -224 c-22 -4 -51 -8 -65 -7 -35 1 34 15 75 16 25 0 23 -2 -10
-9z m-165 -21 c-73 -8 -332 -8 -395 1 -27 4 63 7 200 6 138 0 225 -3 195 -7z
m99 -411 l16 -62 92 -5 c59 -3 90 -9 85 -15 -4 -5 -33 -28 -65 -49 -67 -45
-71 -49 -59 -73 11 -21 32 -106 32 -128 0 -10 -21 0 -61 30 -34 25 -67 45 -73
45 -11 0 -93 -55 -106 -70 -8 -11 -40 -20 -40 -12 0 4 9 36 20 70 11 35 20 71
20 80 0 16 -65 69 -102 84 -10 4 -18 14 -18 23 0 12 15 15 84 15 l83 0 18 58
c33 106 35 110 47 89 5 -11 18 -47 27 -80z m1186 3 l17 -70 89 0 c49 0 89 -4
89 -9 0 -6 -24 -26 -54 -46 -82 -54 -81 -54 -56 -136 11 -39 20 -75 18 -79 -2
-5 -30 11 -62 36 -33 24 -66 44 -73 44 -7 0 -41 -20 -75 -45 -34 -25 -65 -45
-70 -45 -4 0 0 19 8 43 33 92 34 118 10 141 -27 25 -55 47 -81 62 -43 24 -27
33 62 36 l88 3 24 77 c29 93 41 90 66 -12z m-607 -313 c5 -17 15 -51 21 -74
l12 -43 84 0 c91 0 111 -14 56 -38 -15 -7 -45 -27 -64 -45 l-37 -32 25 -75
c14 -41 25 -76 25 -77 0 -11 -27 2 -66 32 -79 60 -74 60 -150 5 -37 -27 -70
-48 -72 -45 -2 2 6 33 18 69 12 36 20 75 18 87 -2 14 -25 37 -60 62 -32 21
-58 43 -58 48 0 5 38 9 84 9 l83 0 18 58 c36 116 44 123 63 59z m-737 -228
c24 -79 28 -81 132 -75 37 2 67 0 67 -4 0 -4 -18 -19 -40 -34 -22 -14 -40 -30
-40 -35 0 -5 -9 -11 -20 -14 -32 -8 -35 -35 -11 -109 13 -38 20 -72 17 -75 -3
-4 -32 13 -65 35 -33 23 -68 42 -79 42 -19 0 -94 -49 -107 -69 -3 -6 -13 -11
-21 -11 -17 0 -12 30 18 107 l21 51 -29 26 c-16 14 -44 33 -61 43 -54 29 -42
42 44 45 l76 3 23 67 c37 111 43 111 75 7z m1384 16 c10 -36 25 -71 33 -77 8
-7 49 -14 90 -15 42 -2 77 -5 79 -7 2 -2 -24 -24 -59 -48 -70 -48 -79 -70 -54
-123 34 -71 31 -118 -6 -82 -7 7 -34 28 -59 46 -45 32 -47 32 -75 17 -16 -9
-49 -33 -74 -52 -24 -20 -46 -32 -48 -26 -1 5 6 33 18 61 11 28 20 66 20 84 0
28 -7 37 -44 61 -25 16 -53 37 -62 47 -20 22 -22 21 77 19 75 -1 79 1 103 80
10 30 19 61 21 68 9 28 24 8 40 -53z"/>
<path d="M1750 3580 l0 -150 50 0 50 0 0 150 0 150 -50 0 -50 0 0 -150z m78
66 c2 -10 -1 -23 -6 -28 -15 -15 -52 1 -52 22 0 33 52 39 58 6z m-10 -115 c23
-14 10 -46 -18 -46 -16 0 -26 6 -28 19 -3 16 12 36 28 36 3 0 11 -4 18 -9z"/>
<path d="M1784 3649 c-10 -17 13 -36 27 -22 12 12 4 33 -11 33 -5 0 -12 -5
-16 -11z"/>
<path d="M1784 3519 c-3 -6 -2 -15 2 -19 12 -12 38 5 30 19 -9 14 -23 14 -32
0z"/>
<path d="M1040 3089 c0 -5 5 -7 10 -4 6 3 10 8 10 11 0 2 -4 4 -10 4 -5 0 -10
-5 -10 -11z"/>
<path d="M2850 3352 c0 -12 19 -26 26 -19 2 2 -2 10 -11 17 -9 8 -15 8 -15 2z"/>
<path d="M2804 3297 c-96 -68 -182 -147 -158 -147 9 0 189 136 204 154 19 24
-8 20 -46 -7z"/>
<path d="M2562 3109 c-7 -12 -11 -23 -8 -27 7 -6 46 27 46 40 0 16 -25 8 -38
-13z"/>
<path d="M2880 2825 c-90 -48 -171 -335 -95 -335 69 0 217 307 164 341 -19 12
-40 11 -69 -6z"/>
<path d="M3335 2808 c-92 -81 -148 -306 -78 -316 35 -5 82 46 128 142 54 111
67 173 40 193 -29 20 -51 16 -90 -19z"/>
<path d="M3795 2797 c-50 -53 -85 -140 -92 -229 -5 -58 -3 -69 12 -74 30 -12
68 21 107 93 71 129 97 225 67 244 -28 17 -53 8 -94 -34z"/>
<path d="M4263 2810 c-58 -57 -97 -212 -74 -297 14 -49 36 -61 71 -35 60 45
89 115 96 232 8 121 -30 161 -93 100z"/>
<path d="M2198 2888 c-56 -19 -116 -152 -125 -280 -7 -96 8 -128 61 -128 26 0
41 8 60 31 52 62 86 170 86 275 0 93 -23 122 -82 102z"/>
<path d="M3496 2281 c-14 -23 -106 -297 -106 -317 0 -34 15 -37 49 -8 61 51
131 198 131 275 0 15 -7 35 -16 43 -17 17 -50 21 -58 7z"/>
<path d="M3110 2258 c-68 -70 -123 -243 -90 -283 19 -23 58 -18 86 10 55 55
106 214 90 279 -9 37 -47 34 -86 -6z"/>
<path d="M3852 2230 c-23 -17 -56 -49 -73 -73 l-31 -42 58 -3 c31 -2 60 1 64
5 9 10 50 120 50 133 0 18 -27 10 -68 -20z"/>
</g>
</svg>
